<svg xmlns="http://www.w3.org/2000/svg" version="1.1" xmlns:xlink="http://www.w3.org/1999/xlink" xmlns:svgjs="http://svgjs.dev/svgjs" width="1000" height="126" viewBox="0 0 1000 126"><g transform="matrix(1,0,0,1,-0.6060484459436566,-0.5566938415760276)"><svg viewBox="0 0 396 50" data-background-color="#ffffff" preserveAspectRatio="xMidYMid meet" height="126" width="1000" xmlns="http://www.w3.org/2000/svg" xmlns:xlink="http://www.w3.org/1999/xlink"><defs></defs><g id="tight-bounds" transform="matrix(1,0,0,1,0.2399951845936812,0.22091025459366165)"><svg viewBox="0 0 395.52 49.558179490812705" height="49.558179490812705" width="395.52"><g><svg viewBox="0 0 481.4284795864858 60.32240848335388" height="49.558179490812705" width="395.52"><g transform="matrix(1,0,0,1,85.90847958648583,8.336888581997535)"><svg viewBox="0 0 395.52 43.64863131935881" height="43.64863131935881" width="395.52"><g><svg viewBox="0 0 395.52 43.64863131935881" height="43.64863131935881" width="395.52"><g><svg viewBox="0 0 395.52 43.64863131935881" height="43.64863131935881" width="395.52"><g transform="matrix(1,0,0,1,0,0)"><svg width="395.52" viewBox="5.25 -35.400001525878906 329.489990234375 35.80000305175781" height="43.64863131935881" data-palette-color="#b1b2e9"><g class="undefined-text-0" data-fill-palette-color="primary" id="text-0"><path d="M18.9-35Q25.7-35 29.6-31.75 33.5-28.5 33.5-22.8L33.5-22.8Q33.5-17.1 29.6-13.85 25.7-10.6 18.9-10.6L18.9-10.6 10.25-10.6 10.25 0 5.25 0 5.25-35 18.9-35ZM18.75-14.95Q23.5-14.95 26-16.98 28.5-19 28.5-22.8L28.5-22.8Q28.5-26.6 26-28.63 23.5-30.65 18.75-30.65L18.75-30.65 10.25-30.65 10.25-14.95 18.75-14.95ZM57.15 0.4Q51.85 0.4 47.6-1.93 43.35-4.25 40.92-8.35 38.5-12.45 38.5-17.5L38.5-17.5Q38.5-22.55 40.92-26.65 43.35-30.75 47.6-33.08 51.85-35.4 57.15-35.4L57.15-35.4Q62.4-35.4 66.65-33.08 70.9-30.75 73.3-26.68 75.7-22.6 75.7-17.5L75.7-17.5Q75.7-12.4 73.3-8.33 70.9-4.25 66.65-1.93 62.4 0.4 57.15 0.4L57.15 0.4ZM57.15-4.05Q61-4.05 64.07-5.8 67.15-7.55 68.92-10.63 70.7-13.7 70.7-17.5L70.7-17.5Q70.7-21.3 68.92-24.38 67.15-27.45 64.07-29.2 61-30.95 57.15-30.95L57.15-30.95Q53.3-30.95 50.17-29.2 47.05-27.45 45.27-24.38 43.5-21.3 43.5-17.5L43.5-17.5Q43.5-13.7 45.27-10.63 47.05-7.55 50.17-5.8 53.3-4.05 57.15-4.05L57.15-4.05ZM112.19 0L106.75 0 99.19-10.75Q97.8-10.65 97-10.65L97-10.65 88.34-10.65 88.34 0 83.34 0 83.34-35 97-35Q103.8-35 107.69-31.75 111.59-28.5 111.59-22.8L111.59-22.8Q111.59-18.75 109.59-15.9 107.59-13.05 103.89-11.75L103.89-11.75 112.19 0ZM96.84-14.9Q101.59-14.9 104.09-16.95 106.59-19 106.59-22.8L106.59-22.8Q106.59-26.6 104.09-28.63 101.59-30.65 96.84-30.65L96.84-30.65 88.34-30.65 88.34-14.9 96.84-14.9ZM126.64 0L126.64-30.65 114.64-30.65 114.64-35 143.59-35 143.59-30.65 131.59-30.65 131.59 0 126.64 0ZM175.19 0L171.34-8.75 152.74-8.75 148.89 0 143.74 0 159.59-35 164.54-35 180.44 0 175.19 0ZM154.49-12.75L169.59-12.75 162.04-29.9 154.49-12.75ZM185.64 0L185.64-35 190.64-35 190.64-4.35 209.59-4.35 209.59 0 185.64 0Z" fill="#b1b2e9" data-fill-palette-color="primary"></path><path d="M259.54-35L264.29-35 252.59 0 247.34 0 237.79-27.95 228.24 0 222.89 0 211.19-35 216.34-35 225.79-6.55 235.64-35 240.24-35 249.89-6.4 259.54-35ZM276.14-4.35L296.54-4.35 296.54 0 271.14 0 271.14-35 295.84-35 295.84-30.65 276.14-30.65 276.14-19.9 293.69-19.9 293.69-15.65 276.14-15.65 276.14-4.35ZM328.19-18.15Q331.24-17.3 332.99-15.08 334.74-12.85 334.74-9.45L334.74-9.45Q334.74-4.9 331.31-2.45 327.89 0 321.34 0L321.34 0 304.64 0 304.64-35 320.34-35Q326.34-35 329.61-32.6 332.89-30.2 332.89-25.95L332.89-25.95Q332.89-23.2 331.61-21.2 330.34-19.2 328.19-18.15L328.19-18.15ZM319.89-30.95L309.64-30.95 309.64-19.75 319.89-19.75Q323.74-19.75 325.81-21.18 327.89-22.6 327.89-25.35L327.89-25.35Q327.89-28.1 325.81-29.53 323.74-30.95 319.89-30.95L319.89-30.95ZM321.14-4.05Q325.39-4.05 327.54-5.45 329.69-6.85 329.69-9.85L329.69-9.85Q329.69-15.7 321.14-15.7L321.14-15.7 309.64-15.7 309.64-4.05 321.14-4.05Z" fill="#707fcc" data-fill-palette-color="secondary"></path></g></svg></g></svg></g></svg></g></svg></g><g><svg viewBox="0 0 75.60408529913687 60.32240848335388" height="60.32240848335388" width="75.60408529913687"><g><svg xmlns="http://www.w3.org/2000/svg" xmlns:xlink="http://www.w3.org/1999/xlink" version="1.1" x="0" y="0" viewBox="1 13 94 75" enable-background="new 0 0 96 96" xml:space="preserve" height="60.32240848335388" width="75.60408529913687" class="icon-icon-0" data-fill-palette-color="accent" id="icon-0"><g fill="#000000" data-fill-palette-color="accent"><path fill="#000000" d="M90 82h-4v-2h4c1.654 0 3-1.346 3-3V18c0-1.654-1.346-3-3-3H6c-1.654 0-3 1.346-3 3v59c0 1.654 1.346 3 3 3h46v2H6c-2.757 0-5-2.243-5-5V18c0-2.757 2.243-5 5-5h84c2.757 0 5 2.243 5 5v59C95 79.757 92.757 82 90 82z" data-fill-palette-color="accent"></path></g><g fill="#000000" data-fill-palette-color="accent"><rect x="2" y="26" fill="#000000" width="91" height="2" data-fill-palette-color="accent"></rect></g><g fill="#000000" data-fill-palette-color="accent"><path fill="#000000" d="M10.5 22C9.673 22 9 21.327 9 20.5S9.673 19 10.5 19s1.5 0.673 1.5 1.5S11.327 22 10.5 22zM10.5 20c-0.276 0-0.5 0.224-0.5 0.5s0.224 0.5 0.5 0.5 0.5-0.224 0.5-0.5S10.776 20 10.5 20z" data-fill-palette-color="accent"></path></g><g fill="#000000" data-fill-palette-color="accent"><path fill="#000000" d="M17.5 22c-0.827 0-1.5-0.673-1.5-1.5s0.673-1.5 1.5-1.5 1.5 0.673 1.5 1.5S18.327 22 17.5 22zM17.5 20c-0.276 0-0.5 0.224-0.5 0.5s0.224 0.5 0.5 0.5 0.5-0.224 0.5-0.5S17.776 20 17.5 20z" data-fill-palette-color="accent"></path></g><g fill="#000000" data-fill-palette-color="accent"><path fill="#000000" d="M24.5 22c-0.827 0-1.5-0.673-1.5-1.5s0.673-1.5 1.5-1.5 1.5 0.673 1.5 1.5S25.327 22 24.5 22zM24.5 20c-0.276 0-0.5 0.224-0.5 0.5s0.224 0.5 0.5 0.5 0.5-0.224 0.5-0.5S24.776 20 24.5 20z" data-fill-palette-color="accent"></path></g><g fill="#000000" data-fill-palette-color="accent"><g fill="#000000" data-fill-palette-color="accent"><path fill="#000000" d="M77 88H61c-2.757 0-5-2.243-5-5V48c0-2.757 2.243-5 5-5h16c2.757 0 5 2.243 5 5v35C82 85.757 79.757 88 77 88zM61 45c-1.654 0-3 1.346-3 3v35c0 1.654 1.346 3 3 3h16c1.654 0 3-1.346 3-3V48c0-1.654-1.346-3-3-3H61z" data-fill-palette-color="accent"></path></g><g fill="#000000" data-fill-palette-color="accent"><path fill="#000000" d="M81 53H57c-0.552 0-1-0.448-1-1s0.448-1 1-1h24c0.552 0 1 0.448 1 1S81.552 53 81 53z" data-fill-palette-color="accent"></path></g><g fill="#000000" data-fill-palette-color="accent"><path fill="#000000" d="M81 80H57c-0.552 0-1-0.448-1-1s0.448-1 1-1h24c0.552 0 1 0.448 1 1S81.552 80 81 80z" data-fill-palette-color="accent"></path></g></g></svg></g></svg></g></svg></g></svg><rect width="395.52" height="49.558179490812705" fill="none" stroke="none" visibility="hidden"></rect></g></svg></g></svg>