<svg id="visual" viewBox="0 0 1920 1080" width="1920" height="1080" xmlns="http://www.w3.org/2000/svg" xmlns:xlink="http://www.w3.org/1999/xlink" version="1.1"><rect x="0" y="0" width="1920" height="1080" fill="#ffffff"></rect><defs><linearGradient id="grad1_0" x1="43.8%" y1="0%" x2="100%" y2="100%"><stop offset="14.444444444444446%" stop-color="#556cd6" stop-opacity="1"></stop><stop offset="85.55555555555554%" stop-color="#556cd6" stop-opacity="1"></stop></linearGradient></defs><defs><linearGradient id="grad1_1" x1="43.8%" y1="0%" x2="100%" y2="100%"><stop offset="14.444444444444446%" stop-color="#556cd6" stop-opacity="1"></stop><stop offset="85.55555555555554%" stop-color="#969ae5" stop-opacity="1"></stop></linearGradient></defs><defs><linearGradient id="grad1_2" x1="43.8%" y1="0%" x2="100%" y2="100%"><stop offset="14.444444444444446%" stop-color="#cccbf2" stop-opacity="1"></stop><stop offset="85.55555555555554%" stop-color="#969ae5" stop-opacity="1"></stop></linearGradient></defs><defs><linearGradient id="grad1_3" x1="43.8%" y1="0%" x2="100%" y2="100%"><stop offset="14.444444444444446%" stop-color="#cccbf2" stop-opacity="1"></stop><stop offset="85.55555555555554%" stop-color="#ffffff" stop-opacity="1"></stop></linearGradient></defs><defs><linearGradient id="grad2_0" x1="0%" y1="0%" x2="56.3%" y2="100%"><stop offset="14.444444444444446%" stop-color="#556cd6" stop-opacity="1"></stop><stop offset="85.55555555555554%" stop-color="#556cd6" stop-opacity="1"></stop></linearGradient></defs><defs><linearGradient id="grad2_1" x1="0%" y1="0%" x2="56.3%" y2="100%"><stop offset="14.444444444444446%" stop-color="#969ae5" stop-opacity="1"></stop><stop offset="85.55555555555554%" stop-color="#556cd6" stop-opacity="1"></stop></linearGradient></defs><defs><linearGradient id="grad2_2" x1="0%" y1="0%" x2="56.3%" y2="100%"><stop offset="14.444444444444446%" stop-color="#969ae5" stop-opacity="1"></stop><stop offset="85.55555555555554%" stop-color="#cccbf2" stop-opacity="1"></stop></linearGradient></defs><defs><linearGradient id="grad2_3" x1="0%" y1="0%" x2="56.3%" y2="100%"><stop offset="14.444444444444446%" stop-color="#ffffff" stop-opacity="1"></stop><stop offset="85.55555555555554%" stop-color="#cccbf2" stop-opacity="1"></stop></linearGradient></defs><g transform="translate(1920, 0)"><path d="M0 1080C-115.5 1076.7 -231 1073.5 -333.7 1027.1C-436.5 980.8 -526.5 891.5 -577.8 795.3C-629.1 699.1 -641.6 596 -722.5 524.9C-803.3 453.8 -952.4 414.7 -1023.3 332.5C-1094.3 250.3 -1087.2 125.2 -1080 0L0 0Z" fill="#e6e5f9"></path><path d="M0 810C-86.6 807.5 -173.2 805.1 -250.3 770.4C-327.4 735.6 -394.9 668.6 -433.3 596.4C-471.8 524.3 -481.2 447 -541.8 393.7C-602.5 340.3 -714.3 311 -767.5 249.4C-820.7 187.8 -815.4 93.9 -810 0L0 0Z" fill="#b1b2ec"></path><path d="M0 540C-57.7 538.4 -115.5 536.7 -166.9 513.6C-218.2 490.4 -263.3 445.7 -288.9 397.6C-314.5 349.5 -320.8 298 -361.2 262.4C-401.6 226.9 -476.2 207.3 -511.7 166.3C-547.2 125.2 -543.6 62.6 -540 0L0 0Z" fill="#7883dd"></path><path d="M0 270C-28.9 269.2 -57.7 268.4 -83.4 256.8C-109.1 245.2 -131.6 222.9 -144.4 198.8C-157.3 174.8 -160.4 149 -180.6 131.2C-200.8 113.4 -238.1 103.7 -255.8 83.1C-273.6 62.6 -271.8 31.3 -270 0L0 0Z" fill="#556cd6"></path></g><g transform="translate(0, 1080)"><path d="M0 -1080C95.2 -1015.2 190.4 -950.4 296.3 -912.1C402.3 -873.7 519.1 -861.8 574.3 -790.4C629.4 -719 622.9 -588.1 703 -510.8C783.2 -433.5 949.9 -409.9 1027.1 -333.7C1104.4 -257.6 1092.2 -128.8 1080 0L0 0Z" fill="#e6e5f9"></path><path d="M0 -810C71.4 -761.4 142.8 -712.8 222.3 -684C301.7 -655.3 389.3 -646.4 430.7 -592.8C472.1 -539.2 467.2 -441 527.3 -383.1C587.4 -325.1 712.4 -307.4 770.4 -250.3C828.3 -193.2 819.2 -96.6 810 0L0 0Z" fill="#b1b2ec"></path><path d="M0 -540C47.6 -507.6 95.2 -475.2 148.2 -456C201.2 -436.9 259.6 -430.9 287.1 -395.2C314.7 -359.5 311.5 -294 351.5 -255.4C391.6 -216.8 474.9 -205 513.6 -166.9C552.2 -128.8 546.1 -64.4 540 0L0 0Z" fill="#7883dd"></path><path d="M0 -270C23.8 -253.8 47.6 -237.6 74.1 -228C100.6 -218.4 129.8 -215.5 143.6 -197.6C157.4 -179.7 155.7 -147 175.8 -127.7C195.8 -108.4 237.5 -102.5 256.8 -83.4C276.1 -64.4 273.1 -32.2 270 0L0 0Z" fill="#556cd6"></path></g></svg>